<?xml version="1.0" standalone="no"?>
<!DOCTYPE svg PUBLIC "-//W3C//DTD SVG 20010904//EN"
 "http://www.w3.org/TR/2001/REC-SVG-20010904/DTD/svg10.dtd">
<svg version="1.0" xmlns="http://www.w3.org/2000/svg"
 width="1200.000000pt" height="1200.000000pt" viewBox="0 0 1200.000000 1200.000000"
 preserveAspectRatio="xMidYMid meet">
<metadata>
Created by potrace 1.14, written by Peter Selinger 2001-2017
</metadata>
<g transform="translate(0.000000,1200.000000) scale(0.100000,-0.100000)"
fill="#000000" stroke="none">
<path d="M0 6000 l0 -6000 6000 0 6000 0 0 6000 0 6000 -6000 0 -6000 0 0
-6000z m6303 2550 c272 -54 473 -141 929 -402 580 -331 907 -453 1329 -494
l67 -7 43 84 c65 126 183 241 309 302 216 104 440 101 652 -10 131 -68 266
-221 318 -361 42 -111 50 -187 50 -484 0 -326 8 -290 -137 -582 -142 -285
-317 -586 -508 -876 -877 -1331 -1887 -2109 -2950 -2271 -188 -29 -497 -36
-690 -15 -360 39 -687 137 -1030 310 -360 182 -657 394 -1003 715 -551 511
-1139 1324 -1543 2131 -151 301 -139 251 -139 598 0 347 7 391 76 532 39 79
62 110 134 181 72 73 101 94 180 132 211 102 421 102 627 1 59 -29 114 -66
157 -105 68 -63 155 -182 178 -245 l13 -36 70 6 c129 12 319 48 440 83 253 73
474 176 906 421 296 168 383 213 523 271 180 75 353 122 521 142 109 12 367 1
478 -21z"/>
<path d="M5865 8099 c-153 -21 -348 -85 -525 -174 -47 -24 -209 -113 -360
-199 -318 -181 -499 -272 -695 -349 -244 -96 -467 -152 -730 -184 l-145 -17 0
-859 0 -859 96 -117 c322 -390 682 -727 1029 -960 917 -616 1846 -650 2770
-101 404 240 824 617 1197 1073 l88 108 0 858 0 858 -117 12 c-380 40 -760
161 -1143 364 -63 33 -216 118 -340 189 -375 215 -569 301 -770 342 -99 20
-267 27 -355 15z m246 -1427 c39 -20 62 -41 84 -77 29 -47 30 -52 35 -204 l5
-156 156 -5 c152 -5 157 -6 204 -35 36 -22 57 -45 78 -85 25 -49 28 -63 25
-127 -3 -60 -8 -78 -33 -115 -17 -23 -53 -56 -80 -73 -47 -29 -51 -30 -202
-34 l-153 -3 0 -147 c0 -135 -2 -152 -23 -192 -73 -138 -273 -166 -378 -52
-55 59 -63 87 -67 246 l-4 147 -127 0 c-179 0 -233 20 -296 109 -28 40 -30 49
-30 130 0 79 3 92 28 129 15 23 46 54 69 69 40 27 46 28 200 31 l158 3 0 128
c0 194 32 270 134 317 73 34 147 33 217 -4z"/>
<path d="M2650 7631 c-83 -27 -151 -94 -169 -166 -6 -25 -11 -135 -11 -260 l0
-215 95 -189 c52 -104 137 -263 188 -353 52 -89 112 -193 133 -230 22 -37 43
-68 47 -68 4 0 6 294 5 653 -3 718 -1 692 -66 760 -54 57 -158 89 -222 68z"/>
<path d="M9240 7631 c-71 -23 -122 -66 -156 -131 -18 -33 -19 -73 -21 -695 -3
-655 -3 -660 17 -635 39 51 237 401 342 607 l110 213 -4 238 c-3 258 -6 270
-67 335 -52 57 -157 89 -221 68z"/>
</g>
</svg>
